<?xml version="1.0" standalone="no"?>
<!DOCTYPE svg PUBLIC "-//W3C//DTD SVG 20010904//EN"
 "http://www.w3.org/TR/2001/REC-SVG-20010904/DTD/svg10.dtd">
<svg version="1.0" xmlns="http://www.w3.org/2000/svg"
 width="314.000000pt" height="314.000000pt" viewBox="0 0 314.000000 314.000000"
 preserveAspectRatio="xMidYMid meet">
<metadata>
Created by potrace 1.14, written by Peter Selinger 2001-2017
</metadata>
<g transform="translate(0.000000,314.000000) scale(0.100000,-0.100000)"
fill="#000000" stroke="none">
<path d="M800 2676 c0 -9 30 -14 35 -6 4 6 -3 10 -14 10 -12 0 -21 -2 -21 -4z"/>
<path d="M1705 2666 c-23 -16 -80 -31 -131 -34 -14 -2 -29 -19 -49 -60 l-28
-58 -69 1 c-61 0 -72 -3 -89 -24 -10 -13 -19 -19 -20 -15 -1 5 -4 -2 -8 -16
-4 -14 -16 -30 -28 -35 -11 -6 -28 -17 -37 -24 -9 -7 -16 -10 -16 -6 0 10 -37
-38 -56 -72 -15 -27 -15 -26 -9 27 4 30 11 57 16 58 5 2 9 11 9 19 0 10 -6 14
-20 10 -11 -3 -20 -1 -20 4 0 5 -11 15 -25 21 -20 9 -31 8 -51 -2 -35 -19 -44
-3 -44 85 0 73 -5 88 -30 97 -30 10 -306 -27 -316 -43 -3 -5 -15 -9 -28 -9
-40 0 -68 -48 -70 -119 -1 -33 -26 -59 -26 -27 0 23 -48 40 -66 25 -12 -9 -13
-9 -9 4 4 8 1 18 -6 23 -7 4 -10 3 -6 -3 10 -15 -18 -24 -32 -10 -8 8 -11 7
-11 -5 0 -20 -22 -29 -41 -17 -8 5 -10 9 -5 9 5 0 -13 16 -39 36 -46 35 -49
36 -108 30 -68 -7 -81 -15 -85 -48 -1 -13 -3 -30 -4 -38 -5 -33 15 -206 24
-217 7 -9 6 -18 -3 -30 -12 -15 -12 -16 1 -8 12 6 13 5 3 -6 -19 -20 -16 -39
10 -49 21 -8 21 -9 -5 -9 -16 -1 -28 -5 -28 -10 0 -6 -8 -9 -17 -9 -10 0 -27
-3 -37 -7 -15 -6 -17 -5 -11 5 6 9 4 11 -4 6 -7 -5 -10 -10 -7 -13 3 -3 -4
-19 -15 -35 -21 -28 -22 -29 -43 -11 -21 18 -21 18 -4 -2 14 -17 15 -24 4 -50
-15 -34 -17 -165 -3 -165 4 0 5 -4 2 -10 -3 -5 0 -18 7 -29 12 -17 18 -21 34
-21 4 0 1 -7 -6 -15 -10 -12 -10 -15 3 -15 22 0 50 -59 36 -76 -13 -15 -3 -37
13 -28 7 4 6 9 -2 14 -9 5 -9 9 -1 15 7 4 16 -5 22 -24 6 -17 18 -31 26 -31 8
0 11 -4 8 -10 -3 -5 0 -8 7 -5 18 7 42 -10 34 -24 -4 -6 -12 -11 -17 -11 -6 0
-8 4 -5 8 3 5 -1 9 -8 9 -11 0 -11 -5 0 -26 8 -14 14 -31 14 -37 0 -6 7 -17
15 -24 20 -17 12 -24 -12 -12 -13 8 -33 5 -71 -8 -28 -10 -52 -16 -52 -12 0
10 -44 -41 -49 -57 -9 -34 -3 -371 7 -383 5 -7 15 -33 22 -58 7 -25 17 -51 23
-58 6 -8 12 -23 14 -33 6 -37 32 -89 44 -87 6 2 18 -16 27 -39 9 -24 20 -43
25 -43 4 0 19 -11 33 -25 19 -19 35 -25 69 -25 24 0 47 -5 50 -10 10 -16 24
-2 20 20 -3 16 2 20 23 20 21 0 24 2 12 10 -12 8 -11 10 8 10 12 0 22 -4 22
-10 0 -18 55 -60 78 -60 31 0 92 26 92 40 0 6 4 9 9 6 5 -3 12 1 15 10 4 10 2
13 -7 8 -6 -4 -4 1 5 11 15 16 21 17 43 7 47 -22 101 -10 131 27 9 11 13 8 22
-19 15 -41 15 -43 0 -34 -7 4 -8 3 -4 -5 4 -6 12 -8 18 -5 7 5 9 -2 4 -22 -4
-19 -3 -24 3 -15 6 10 13 -1 26 -38 9 -28 21 -51 26 -51 6 0 8 -4 5 -9 -3 -5
1 -12 10 -15 10 -4 13 -2 9 7 -4 6 0 4 8 -5 18 -22 77 -24 117 -3 31 16 40 35
18 35 -9 0 -8 3 2 10 9 6 17 5 22 -3 5 -8 8 -6 8 6 0 11 6 17 18 15 10 -2 16
2 14 10 -2 10 2 10 17 2 13 -7 22 -7 26 0 4 6 11 8 16 5 5 -4 16 0 23 8 13 12
13 17 1 34 -13 18 -11 23 18 50 67 63 112 79 136 49 6 -8 32 -19 56 -25 25 -6
45 -16 45 -23 0 -6 9 -3 21 8 17 15 22 16 29 4 5 -8 6 -18 3 -24 -3 -5 -1 -6
5 -2 7 4 12 1 12 -9 0 -8 7 -18 15 -21 8 -4 12 -11 8 -17 -4 -6 -1 -7 6 -3 7
5 21 0 32 -10 18 -16 21 -16 52 0 17 10 46 29 62 43 17 14 24 22 16 17 -11 -5
-13 -3 -8 10 4 10 7 22 7 27 0 6 25 8 58 5 43 -3 57 -8 56 -20 -1 -8 1 -15 5
-14 3 1 14 -2 24 -7 14 -6 17 -14 12 -35 -6 -26 -4 -28 22 -25 33 3 73 -10 73
-25 0 -6 -4 -8 -10 -5 -5 3 -10 0 -10 -7 0 -9 11 -14 28 -13 18 0 27 5 27 16
0 19 30 51 39 42 3 -4 6 -1 6 5 0 7 11 12 24 12 19 0 24 5 25 28 1 67 -1 65
32 39 l30 -24 31 29 31 29 23 -22 c13 -12 21 -26 17 -32 -3 -6 -1 -7 4 -4 6 4
16 0 23 -8 21 -26 76 -19 100 13 26 33 30 33 41 5 13 -35 62 -31 89 7 12 17
29 30 39 29 9 -2 31 1 50 5 25 6 30 11 20 17 -11 7 -9 9 7 9 11 0 29 -7 40
-15 27 -20 97 -19 124 3 12 10 28 40 35 67 l12 50 47 -3 c42 -2 51 1 77 29 16
17 29 41 29 54 0 12 11 43 25 67 27 49 32 77 39 205 3 67 1 89 -15 120 -17 32
-17 38 -4 46 20 11 19 26 -2 49 -12 14 -14 21 -5 30 8 8 7 15 -4 25 -19 20
-18 30 7 36 12 3 18 10 14 17 -4 6 -12 7 -18 2 -21 -15 -42 -8 -45 15 -4 30
-48 63 -83 63 -21 0 -29 5 -30 18 0 10 -3 12 -6 5 -2 -7 -9 -13 -15 -13 -6 0
-2 12 7 27 16 23 16 25 1 20 -16 -6 -22 4 -9 17 7 7 8 8 24 114 9 64 9 76 -5
91 -12 13 -16 40 -16 112 0 62 -4 100 -12 108 -8 8 -8 11 -2 8 8 -4 13 5 16
25 l5 32 -19 -24 c-10 -12 -21 -20 -24 -17 -9 8 49 57 60 50 5 -4 7 0 4 8 -3
8 -1 22 6 30 6 9 11 43 10 75 0 73 -42 150 -75 141 -13 -3 -30 4 -47 20 -15
13 -21 21 -13 17 9 -5 12 -3 7 5 -4 6 -11 9 -16 6 -5 -3 -15 3 -22 14 -12 16
-20 17 -78 9 -36 -5 -87 -13 -113 -18 -56 -11 -83 -2 -97 35 -7 19 -18 24 -62
28 -61 6 -107 4 -105 -3 3 -10 -51 -69 -57 -63 -5 6 -10 -11 -8 -28 1 -4 -8
-4 -20 -1 -14 3 -19 1 -14 -6 5 -8 -10 -11 -54 -8 -33 2 -60 0 -60 -4 0 -4 -9
-10 -20 -13 -13 -3 -20 -14 -20 -28 0 -19 -3 -17 -19 14 -11 21 -31 47 -45 58
-14 11 -26 27 -26 34 0 8 -11 22 -25 31 -14 9 -22 21 -18 27 3 6 1 7 -5 3 -13
-8 -56 17 -46 26 3 3 -3 5 -13 5 -10 -1 -17 3 -16 9 1 6 -9 16 -23 23 -15 6
-23 7 -19 1 3 -6 -1 -7 -9 -4 -9 3 -13 10 -10 15 8 13 -9 11 -31 -5z m162
-703 c-3 -10 -5 -2 -5 17 0 19 2 27 5 18 2 -10 2 -26 0 -35z m-820 -65 c-2
-18 -4 -6 -4 27 0 33 2 48 4 33 2 -15 2 -42 0 -60z m-427 13 c0 -11 -47 -31
-54 -24 -12 12 -6 25 9 19 8 -3 14 -2 14 2 -3 16 2 21 16 16 8 -4 15 -9 15
-13z m-97 -46 c-3 -9 -8 -14 -10 -11 -3 3 -2 9 2 15 9 16 15 13 8 -4z m-50
-47 c-4 -7 -8 -15 -8 -18 0 -12 -55 -74 -55 -62 0 6 9 21 20 32 11 11 16 20
10 20 -5 0 -2 9 8 19 19 22 37 28 25 9z m1404 -40 c-3 -7 -5 -2 -5 12 0 14 2
19 5 13 2 -7 2 -19 0 -25z m50 0 c-3 -8 -6 -5 -6 6 -1 11 2 17 5 13 3 -3 4
-12 1 -19z m893 -82 c0 -2 -7 -9 -15 -16 -13 -11 -14 -10 -9 4 5 14 24 23 24
12z m-1850 -45 c-5 -11 -15 -23 -22 -27 -7 -5 -8 -2 -3 7 21 37 44 55 25 20z
m415 9 c3 -5 -3 -10 -14 -10 -12 0 -21 5 -21 10 0 6 6 10 14 10 8 0 18 -4 21
-10z m-58 -72 c-3 -7 -5 -2 -5 12 0 14 2 19 5 13 2 -7 2 -19 0 -25z m0 -135
c-2 -21 -4 -4 -4 37 0 41 2 58 4 38 2 -21 2 -55 0 -75z m-454 80 c-7 -2 -10
-10 -7 -17 3 -7 -1 -18 -9 -24 -11 -9 -13 -8 -12 7 1 23 25 54 34 45 3 -4 1
-9 -6 -11z m1150 -68 c-3 -9 -8 -14 -10 -11 -3 3 -2 9 2 15 9 16 15 13 8 -4z
m-1185 -15 c-7 -10 -14 -17 -17 -15 -4 4 18 35 25 35 2 0 -1 -9 -8 -20z m1138
-39 c-21 -23 -80 -36 -104 -22 -18 11 -16 11 33 16 17 1 32 4 35 5 3 1 8 2 13
1 4 0 7 4 7 9 0 6 7 10 17 10 15 0 15 -2 -1 -19z m-1191 -21 c3 -5 1 -10 -4
-10 -6 0 -11 5 -11 10 0 6 2 10 4 10 3 0 8 -4 11 -10z m-22 -27 c-7 -2 -13
-12 -13 -20 0 -9 -3 -14 -6 -10 -10 10 4 37 18 36 10 0 10 -2 1 -6z m-33 -53
c0 -5 -2 -10 -4 -10 -3 0 -8 5 -11 10 -3 6 -1 10 4 10 6 0 11 -4 11 -10z m-35
-50 c3 -5 1 -10 -4 -10 -6 0 -11 5 -11 10 0 6 2 10 4 10 3 0 8 -4 11 -10z
m1802 -122 c-3 -8 -6 -5 -6 6 -1 11 2 17 5 13 3 -3 4 -12 1 -19z m-1172 -74
c-18 -35 -20 -23 -2 24 6 19 13 28 15 20 1 -8 -4 -27 -13 -44z m1185 14 c0
-25 -4 -38 -9 -32 -8 8 -4 74 5 74 2 0 4 -19 4 -42z m-206 -23 c-5 -11 -20
-15 -58 -14 -50 1 -50 1 -13 9 20 4 40 10 44 13 13 13 32 7 27 -8z m-1901 -2
c-7 -2 -21 -2 -30 0 -10 3 -4 5 12 5 17 0 24 -2 18 -5z m1576 3 c-2 -2 -26 -6
-53 -9 -30 -3 -43 -1 -35 4 13 8 97 13 88 5z m501 -8 c0 -10 -47 -9 -80 2 -19
7 -13 8 28 8 28 -1 52 -5 52 -10z m-2040 -8 c0 -5 -2 -10 -4 -10 -3 0 -8 5
-11 10 -3 6 -1 10 4 10 6 0 11 -4 11 -10z m88 3 c-16 -2 -40 -2 -55 0 -16 2
-3 4 27 4 30 0 43 -2 28 -4z m265 0 c-7 -2 -19 -2 -25 0 -7 3 -2 5 12 5 14 0
19 -2 13 -5z m1074 1 c-3 -3 -12 -4 -19 -1 -8 3 -5 6 6 6 11 1 17 -2 13 -5z
m246 -1 c-7 -2 -19 -2 -25 0 -7 3 -2 5 12 5 14 0 19 -2 13 -5z m-942 -396 c-6
-8 -9 -17 -6 -20 3 -4 2 -5 -2 -2 -3 3 -12 0 -19 -6 -8 -6 -14 -6 -18 0 -4 5
3 12 14 16 11 3 20 11 20 16 0 5 5 9 11 9 8 0 9 -4 0 -13z"/>
<path d="M948 2663 c7 -3 16 -2 19 1 4 3 -2 6 -13 5 -11 0 -14 -3 -6 -6z"/>
<path d="M460 2584 c0 -8 5 -12 10 -9 6 3 10 10 10 16 0 5 -4 9 -10 9 -5 0
-10 -7 -10 -16z"/>
<path d="M175 2560 c3 -5 11 -10 16 -10 6 0 7 5 4 10 -3 6 -11 10 -16 10 -6 0
-7 -4 -4 -10z"/>
<path d="M552 2540 c0 -14 2 -19 5 -12 2 6 2 18 0 25 -3 6 -5 1 -5 -13z"/>
<path d="M363 2531 c0 -11 6 -17 14 -14 18 7 17 33 -1 33 -8 0 -14 -8 -13 -19z"/>
<path d="M1996 2505 c-18 -14 -19 -15 -2 -15 12 0 16 -5 13 -14 -4 -10 -1 -13
8 -9 8 3 13 9 10 13 -3 5 0 10 7 12 6 2 8 10 4 16 -9 15 -17 15 -40 -3z"/>
<path d="M375 2500 c-3 -6 1 -7 9 -4 18 7 21 14 7 14 -6 0 -13 -4 -16 -10z"/>
<path d="M545 2500 c-3 -6 1 -7 9 -4 18 7 21 14 7 14 -6 0 -13 -4 -16 -10z"/>
<path d="M2060 2500 c-9 -6 -10 -10 -3 -10 6 0 15 5 18 10 8 12 4 12 -15 0z"/>
<path d="M41 1726 c-10 -12 -8 -13 8 -9 12 3 18 9 15 14 -7 12 -10 11 -23 -5z"/>
<path d="M10 1466 c7 -7 13 -7 20 0 6 6 3 10 -10 10 -13 0 -16 -4 -10 -10z"/>
<path d="M1290 749 c0 -5 9 -9 20 -9 11 0 20 2 20 4 0 2 -9 6 -20 9 -11 3 -20
1 -20 -4z"/>
<path d="M2187 725 c-8 -8 -18 -11 -22 -7 -5 4 -5 1 -1 -6 4 -7 11 -10 16 -7
5 3 13 -3 19 -12 9 -16 11 -16 19 7 15 39 -3 54 -31 25z"/>
<path d="M2517 723 c-4 -3 -7 -11 -7 -17 0 -6 5 -5 12 2 6 6 9 14 7 17 -3 3
-9 2 -12 -2z"/>
<path d="M1380 716 c0 -2 7 -6 15 -10 8 -3 15 -1 15 4 0 6 -7 10 -15 10 -8 0
-15 -2 -15 -4z"/>
<path d="M1226 697 c-16 -12 -16 -13 2 -13 10 0 19 6 19 13 0 7 -1 13 -2 13
-1 0 -9 -6 -19 -13z"/>
<path d="M1790 701 c0 -6 4 -13 10 -16 6 -3 7 1 4 9 -7 18 -14 21 -14 7z"/>
<path d="M2370 695 c-7 -9 -8 -15 -2 -15 5 0 12 7 16 15 3 8 4 15 2 15 -2 0
-9 -7 -16 -15z"/>
<path d="M430 650 c0 -5 5 -10 11 -10 5 0 7 5 4 10 -3 6 -8 10 -11 10 -2 0 -4
-4 -4 -10z"/>
<path d="M506 625 c-11 -8 -17 -15 -14 -15 4 0 13 -3 22 -6 11 -4 14 0 13 15
-1 12 -1 21 -2 21 0 0 -9 -7 -19 -15z"/>
<path d="M2045 620 c3 -5 0 -10 -7 -12 -8 -3 -6 -7 4 -11 9 -3 21 0 27 7 9 10
7 15 -9 19 -11 3 -18 1 -15 -3z"/>
<path d="M1998 613 c7 -3 16 -2 19 1 4 3 -2 6 -13 5 -11 0 -14 -3 -6 -6z"/>
</g>
</svg>
